<svg width="1000" height="1000" viewBox="0 0 1000 1000" fill="none" xmlns="http://www.w3.org/2000/svg">
<path d="M0 0H500C776.142 0 1000 223.858 1000 500V500C1000 776.142 776.142 1000 500 1000V1000C223.858 1000 0 776.142 0 500V0Z" fill="url(#paint0_linear_13_10)"/>
<path d="M691.75 402C691.75 430 685 456.25 671.5 480.75C658.5 505.25 637.75 525 609.25 540C581.25 555 545.75 562.5 502.75 562.5H415V763.5H310V240H502.75C543.25 240 577.75 247 606.25 261C634.75 275 656 294.25 670 318.75C684.5 343.25 691.75 371 691.75 402ZM498.25 477.75C527.25 477.75 548.75 471.25 562.75 458.25C576.75 444.75 583.75 426 583.75 402C583.75 351 555.25 325.5 498.25 325.5H415V477.75H498.25Z" fill="white"/>
<defs>
<linearGradient id="paint0_linear_13_10" x1="0" y1="500" x2="1000" y2="500" gradientUnits="userSpaceOnUse">
<stop stop-color="#FF006E"/>
<stop offset="1" stop-color="#3A86FF"/>
</linearGradient>
</defs>
</svg>
