<svg width="5000" height="1000" viewBox="0 0 5000 1000" fill="none" xmlns="http://www.w3.org/2000/svg">
<path d="M0 0H4500C4776.14 0 5000 223.858 5000 500V500C5000 776.142 4776.14 1000 4500 1000H500C223.858 1000 0 776.142 0 500V0Z" fill="url(#paint0_linear_13_2)"/>
<path d="M1367.5 462.5C1367.5 482.833 1362.83 501.5 1353.5 518.5C1344.17 535.167 1329.83 548.667 1310.5 559C1291.17 569.333 1267.17 574.5 1238.5 574.5H1185.5V700.5H1100V349.5H1238.5C1266.5 349.5 1290.17 354.333 1309.5 364C1328.83 373.667 1343.33 387 1353 404C1362.67 421 1367.5 440.5 1367.5 462.5ZM1232 506.5C1248.33 506.5 1260.5 502.667 1268.5 495C1276.5 487.333 1280.5 476.5 1280.5 462.5C1280.5 448.5 1276.5 437.667 1268.5 430C1260.5 422.333 1248.33 418.5 1232 418.5H1185.5V506.5H1232Z" fill="white"/>
<path d="M1497.51 468C1507.51 452.667 1520.01 440.667 1535.01 432C1550.01 423 1566.68 418.5 1585.01 418.5V509H1561.51C1540.18 509 1524.18 513.667 1513.51 523C1502.85 532 1497.51 548 1497.51 571V700.5H1412.01V421.5H1497.51V468Z" fill="white"/>
<path d="M1668.88 392.5C1653.88 392.5 1641.55 388.167 1631.88 379.5C1622.55 370.5 1617.88 359.5 1617.88 346.5C1617.88 333.167 1622.55 322.167 1631.88 313.5C1641.55 304.5 1653.88 300 1668.88 300C1683.55 300 1695.55 304.5 1704.88 313.5C1714.55 322.167 1719.38 333.167 1719.38 346.5C1719.38 359.5 1714.55 370.5 1704.88 379.5C1695.55 388.167 1683.55 392.5 1668.88 392.5ZM1711.38 421.5V700.5H1625.88V421.5H1711.38Z" fill="white"/>
<path d="M1886.84 704.5C1862.51 704.5 1840.84 700.333 1821.84 692C1802.84 683.667 1787.84 672.333 1776.84 658C1765.84 643.333 1759.67 627 1758.34 609H1842.84C1843.84 618.667 1848.34 626.5 1856.34 632.5C1864.34 638.5 1874.17 641.5 1885.84 641.5C1896.51 641.5 1904.67 639.5 1910.34 635.5C1916.34 631.167 1919.34 625.667 1919.34 619C1919.34 611 1915.17 605.167 1906.84 601.5C1898.51 597.5 1885.01 593.167 1866.34 588.5C1846.34 583.833 1829.67 579 1816.34 574C1803.01 568.667 1791.51 560.5 1781.84 549.5C1772.17 538.167 1767.34 523 1767.34 504C1767.34 488 1771.67 473.5 1780.34 460.5C1789.34 447.167 1802.34 436.667 1819.34 429C1836.67 421.333 1857.17 417.5 1880.84 417.5C1915.84 417.5 1943.34 426.167 1963.34 443.5C1983.67 460.833 1995.34 483.833 1998.34 512.5H1919.34C1918.01 502.833 1913.67 495.167 1906.34 489.5C1899.34 483.833 1890.01 481 1878.34 481C1868.34 481 1860.67 483 1855.34 487C1850.01 490.667 1847.34 495.833 1847.34 502.5C1847.34 510.5 1851.51 516.5 1859.84 520.5C1868.51 524.5 1881.84 528.5 1899.84 532.5C1920.51 537.833 1937.34 543.167 1950.34 548.5C1963.34 553.5 1974.67 561.833 1984.34 573.5C1994.34 584.833 1999.51 600.167 1999.84 619.5C1999.84 635.833 1995.17 650.5 1985.84 663.5C1976.84 676.167 1963.67 686.167 1946.34 693.5C1929.34 700.833 1909.51 704.5 1886.84 704.5Z" fill="white"/>
<path d="M2408.15 418.5C2442.82 418.5 2470.32 429 2490.65 450C2511.32 471 2521.65 500.167 2521.65 537.5V700.5H2436.65V549C2436.65 531 2431.82 517.167 2422.15 507.5C2412.82 497.5 2399.82 492.5 2383.15 492.5C2366.48 492.5 2353.32 497.5 2343.65 507.5C2334.32 517.167 2329.65 531 2329.65 549V700.5H2244.65V549C2244.65 531 2239.82 517.167 2230.15 507.5C2220.82 497.5 2207.82 492.5 2191.15 492.5C2174.48 492.5 2161.32 497.5 2151.65 507.5C2142.32 517.167 2137.65 531 2137.65 549V700.5H2052.15V421.5H2137.65V456.5C2146.32 444.833 2157.65 435.667 2171.65 429C2185.65 422 2201.48 418.5 2219.15 418.5C2240.15 418.5 2258.82 423 2275.15 432C2291.82 441 2304.82 453.833 2314.15 470.5C2323.82 455.167 2336.98 442.667 2353.65 433C2370.32 423.333 2388.48 418.5 2408.15 418.5Z" fill="white"/>
<path d="M2672.9 524.5C2672.9 489.833 2680.4 459 2695.4 432C2710.4 404.667 2731.24 383.5 2757.9 368.5C2784.9 353.167 2815.4 345.5 2849.4 345.5C2891.07 345.5 2926.74 356.5 2956.4 378.5C2986.07 400.5 3005.9 430.5 3015.9 468.5H2921.9C2914.9 453.833 2904.9 442.667 2891.9 435C2879.24 427.333 2864.74 423.5 2848.4 423.5C2822.07 423.5 2800.74 432.667 2784.4 451C2768.07 469.333 2759.9 493.833 2759.9 524.5C2759.9 555.167 2768.07 579.667 2784.4 598C2800.74 616.333 2822.07 625.5 2848.4 625.5C2864.74 625.5 2879.24 621.667 2891.9 614C2904.9 606.333 2914.9 595.167 2921.9 580.5H3015.9C3005.9 618.5 2986.07 648.5 2956.4 670.5C2926.74 692.167 2891.07 703 2849.4 703C2815.4 703 2784.9 695.5 2757.9 680.5C2731.24 665.167 2710.4 644 2695.4 617C2680.4 590 2672.9 559.167 2672.9 524.5Z" fill="white"/>
<path d="M3239.76 418.5C3271.76 418.5 3297.43 429.167 3316.76 450.5C3336.1 471.5 3345.76 500.5 3345.76 537.5V700.5H3260.76V549C3260.76 530.333 3255.93 515.833 3246.26 505.5C3236.6 495.167 3223.59 490 3207.26 490C3190.93 490 3177.93 495.167 3168.26 505.5C3158.6 515.833 3153.76 530.333 3153.76 549V700.5H3068.26V330.5H3153.76V459C3162.43 446.667 3174.26 436.833 3189.26 429.5C3204.26 422.167 3221.09 418.5 3239.76 418.5Z" fill="white"/>
<path d="M3388.18 560.5C3388.18 531.833 3393.51 506.667 3404.18 485C3415.18 463.333 3430.01 446.667 3448.68 435C3467.34 423.333 3488.18 417.5 3511.18 417.5C3530.84 417.5 3548.01 421.5 3562.68 429.5C3577.68 437.5 3589.18 448 3597.18 461V421.5H3682.68V700.5H3597.18V661C3588.84 674 3577.18 684.5 3562.18 692.5C3547.51 700.5 3530.34 704.5 3510.68 704.5C3488.01 704.5 3467.34 698.667 3448.68 687C3430.01 675 3415.18 658.167 3404.18 636.5C3393.51 614.5 3388.18 589.167 3388.18 560.5ZM3597.18 561C3597.18 539.667 3591.18 522.833 3579.18 510.5C3567.51 498.167 3553.18 492 3536.18 492C3519.18 492 3504.68 498.167 3492.68 510.5C3481.01 522.5 3475.18 539.167 3475.18 560.5C3475.18 581.833 3481.01 598.833 3492.68 611.5C3504.68 623.833 3519.18 630 3536.18 630C3553.18 630 3567.51 623.833 3579.18 611.5C3591.18 599.167 3597.18 582.333 3597.18 561Z" fill="white"/>
<path d="M3900.03 628V700.5H3856.53C3825.53 700.5 3801.36 693 3784.03 678C3766.7 662.667 3758.03 637.833 3758.03 603.5V492.5H3724.03V421.5H3758.03V353.5H3843.53V421.5H3899.53V492.5H3843.53V604.5C3843.53 612.833 3845.53 618.833 3849.53 622.5C3853.53 626.167 3860.2 628 3869.53 628H3900.03Z" fill="white"/>
<defs>
<linearGradient id="paint0_linear_13_2" x1="0" y1="500" x2="5000" y2="500" gradientUnits="userSpaceOnUse">
<stop stop-color="#FF006E"/>
<stop offset="1" stop-color="#3A86FF"/>
</linearGradient>
</defs>
</svg>
